<mxfile host="65bd71144e">
    <diagram id="gBnjyEWj9aaUygK2GbAK" name="ページ1">
        <mxGraphModel dx="728" dy="1500" grid="1" gridSize="10" guides="1" tooltips="1" connect="1" arrows="1" fold="1" page="1" pageScale="1" pageWidth="1169" pageHeight="827" background="#FFFFFF" math="0" shadow="0">
            <root>
                <mxCell id="0"/>
                <mxCell id="1" parent="0"/>
                <mxCell id="54" value="" style="rounded=0;whiteSpace=wrap;html=1;fontSize=18;dashed=1;fillColor=none;strokeWidth=3;movable=1;resizable=1;rotatable=1;deletable=1;editable=1;connectable=1;" parent="1" vertex="1">
                    <mxGeometry x="70" y="60" width="720" height="190" as="geometry"/>
                </mxCell>
                <mxCell id="57" value="" style="rounded=0;whiteSpace=wrap;html=1;dashed=1;strokeColor=#FF99CC;strokeWidth=3;fontSize=18;fillColor=none;movable=1;resizable=1;rotatable=1;deletable=1;editable=1;connectable=1;" parent="1" vertex="1">
                    <mxGeometry x="1020" y="40" width="200" height="390" as="geometry"/>
                </mxCell>
                <mxCell id="6" style="edgeStyle=none;html=1;entryX=0;entryY=0.5;entryDx=0;entryDy=0;strokeWidth=3;fontSize=20;endArrow=classic;endFill=1;fillColor=#dae8fc;strokeColor=#6c8ebf;" parent="1" source="2" target="5" edge="1">
                    <mxGeometry relative="1" as="geometry"/>
                </mxCell>
                <mxCell id="11" style="edgeStyle=none;html=1;entryX=0.5;entryY=0;entryDx=0;entryDy=0;strokeColor=#6c8ebf;strokeWidth=3;fontSize=20;endArrow=classic;endFill=1;fillColor=#dae8fc;" parent="1" source="2" target="10" edge="1">
                    <mxGeometry relative="1" as="geometry"/>
                </mxCell>
                <mxCell id="2" value="&lt;font style=&quot;font-size: 18px;&quot;&gt;ランチコントローラー&lt;/font&gt;" style="rounded=0;whiteSpace=wrap;html=1;" parent="1" vertex="1">
                    <mxGeometry x="360" y="200" width="240" height="40" as="geometry"/>
                </mxCell>
                <mxCell id="4" style="edgeStyle=none;html=1;entryX=0;entryY=0.5;entryDx=0;entryDy=0;fontSize=20;strokeWidth=3;endArrow=classic;endFill=1;fillColor=#dae8fc;strokeColor=#6c8ebf;" parent="1" source="3" target="2" edge="1">
                    <mxGeometry relative="1" as="geometry"/>
                </mxCell>
                <mxCell id="3" value="&lt;font style=&quot;font-size: 18px;&quot;&gt;充填確認スイッチ（x3）&lt;/font&gt;" style="rounded=0;whiteSpace=wrap;html=1;fontSize=20;" parent="1" vertex="1">
                    <mxGeometry x="80" y="200" width="240" height="40" as="geometry"/>
                </mxCell>
                <mxCell id="5" value="&lt;font style=&quot;font-size: 18px;&quot;&gt;スピーカー&lt;/font&gt;" style="rounded=0;whiteSpace=wrap;html=1;fontSize=20;" parent="1" vertex="1">
                    <mxGeometry x="640" y="200" width="140" height="40" as="geometry"/>
                </mxCell>
                <mxCell id="8" style="edgeStyle=none;html=1;entryX=0.5;entryY=0;entryDx=0;entryDy=0;strokeWidth=3;fontSize=20;endArrow=classic;endFill=1;fillColor=#f8cecc;strokeColor=#b85450;" parent="1" source="7" target="2" edge="1">
                    <mxGeometry relative="1" as="geometry"/>
                </mxCell>
                <mxCell id="7" value="&lt;font style=&quot;font-size: 18px;&quot;&gt;ポータブルバッテリー&lt;/font&gt;" style="rounded=0;whiteSpace=wrap;html=1;fontSize=20;" parent="1" vertex="1">
                    <mxGeometry x="370" y="80" width="220" height="40" as="geometry"/>
                </mxCell>
                <mxCell id="9" value="&lt;font style=&quot;font-size: 18px;&quot;&gt;DC 12 V&lt;/font&gt;" style="text;html=1;align=center;verticalAlign=middle;resizable=0;points=[];autosize=1;strokeColor=none;fillColor=none;fontSize=20;" parent="1" vertex="1">
                    <mxGeometry x="490" y="160" width="90" height="40" as="geometry"/>
                </mxCell>
                <mxCell id="20" style="edgeStyle=orthogonalEdgeStyle;html=1;entryX=0;entryY=0.5;entryDx=0;entryDy=0;strokeColor=#b85450;strokeWidth=3;fontSize=18;endArrow=classic;endFill=1;rounded=0;fillColor=#f8cecc;exitX=1;exitY=0.25;exitDx=0;exitDy=0;" parent="1" source="10" target="19" edge="1">
                    <mxGeometry relative="1" as="geometry"/>
                </mxCell>
                <mxCell id="30" style="edgeStyle=orthogonalEdgeStyle;rounded=0;html=1;entryX=0;entryY=0.5;entryDx=0;entryDy=0;strokeColor=#6c8ebf;strokeWidth=3;fontSize=18;endArrow=classic;endFill=1;exitX=1;exitY=0.75;exitDx=0;exitDy=0;fillColor=#dae8fc;" parent="1" source="10" target="29" edge="1">
                    <mxGeometry relative="1" as="geometry">
                        <Array as="points">
                            <mxPoint x="610" y="430"/>
                            <mxPoint x="610" y="540"/>
                        </Array>
                    </mxGeometry>
                </mxCell>
                <mxCell id="65" style="edgeStyle=orthogonalEdgeStyle;rounded=0;html=1;strokeColor=#6c8ebf;strokeWidth=3;fontSize=20;endArrow=classic;endFill=1;entryX=0;entryY=0.75;entryDx=0;entryDy=0;fillColor=#dae8fc;" parent="1" source="10" target="44" edge="1">
                    <mxGeometry relative="1" as="geometry">
                        <mxPoint x="980" y="270" as="targetPoint"/>
                        <Array as="points">
                            <mxPoint x="610" y="420"/>
                            <mxPoint x="610" y="370"/>
                            <mxPoint x="840" y="370"/>
                            <mxPoint x="840" y="170"/>
                        </Array>
                    </mxGeometry>
                </mxCell>
                <mxCell id="10" value="&lt;font style=&quot;font-size: 18px;&quot;&gt;サテライトコントローラー&lt;/font&gt;" style="rounded=0;whiteSpace=wrap;html=1;" parent="1" vertex="1">
                    <mxGeometry x="360" y="400" width="240" height="40" as="geometry"/>
                </mxCell>
                <mxCell id="14" style="edgeStyle=none;html=1;entryX=0.5;entryY=1;entryDx=0;entryDy=0;strokeColor=#b85450;strokeWidth=3;fontSize=18;endArrow=classic;endFill=1;fillColor=#f8cecc;" parent="1" source="13" target="10" edge="1">
                    <mxGeometry relative="1" as="geometry"/>
                </mxCell>
                <mxCell id="50" style="edgeStyle=orthogonalEdgeStyle;rounded=0;html=1;entryX=0.5;entryY=1;entryDx=0;entryDy=0;strokeColor=#b85450;strokeWidth=3;fontSize=18;endArrow=classic;endFill=1;fillColor=#f8cecc;" parent="1" source="13" target="49" edge="1">
                    <mxGeometry relative="1" as="geometry"/>
                </mxCell>
                <mxCell id="13" value="&lt;font style=&quot;font-size: 18px;&quot;&gt;ポータブルバッテリー&lt;/font&gt;" style="rounded=0;whiteSpace=wrap;html=1;fontSize=20;" parent="1" vertex="1">
                    <mxGeometry x="370" y="480" width="220" height="40" as="geometry"/>
                </mxCell>
                <mxCell id="15" value="&lt;font style=&quot;font-size: 18px;&quot;&gt;DC 12 V&lt;/font&gt;" style="text;html=1;align=center;verticalAlign=middle;resizable=0;points=[];autosize=1;strokeColor=none;fillColor=none;fontSize=20;" parent="1" vertex="1">
                    <mxGeometry x="490" y="440" width="90" height="40" as="geometry"/>
                </mxCell>
                <mxCell id="19" value="電磁弁ユニット" style="rounded=0;whiteSpace=wrap;html=1;fontSize=18;" parent="1" vertex="1">
                    <mxGeometry x="680" y="390" width="200" height="40" as="geometry"/>
                </mxCell>
                <mxCell id="21" value="&lt;font style=&quot;font-size: 16px;&quot;&gt;DC 12 V&lt;/font&gt;" style="text;html=1;align=center;verticalAlign=middle;resizable=0;points=[];autosize=1;strokeColor=none;fillColor=none;fontSize=18;" parent="1" vertex="1">
                    <mxGeometry x="605" y="410" width="80" height="40" as="geometry"/>
                </mxCell>
                <mxCell id="23" value="1" style="ellipse;whiteSpace=wrap;html=1;aspect=fixed;fontSize=18;fillColor=#E6E6E6;" parent="1" vertex="1">
                    <mxGeometry x="175" y="140" width="50" height="50" as="geometry"/>
                </mxCell>
                <mxCell id="24" value="2" style="ellipse;whiteSpace=wrap;html=1;aspect=fixed;fontSize=18;fillColor=#E6E6E6;" parent="1" vertex="1">
                    <mxGeometry x="310" y="75" width="50" height="50" as="geometry"/>
                </mxCell>
                <mxCell id="25" value="4" style="ellipse;whiteSpace=wrap;html=1;aspect=fixed;fontSize=18;fillColor=#E6E6E6;" parent="1" vertex="1">
                    <mxGeometry x="685" y="140" width="50" height="50" as="geometry"/>
                </mxCell>
                <mxCell id="26" value="5" style="ellipse;whiteSpace=wrap;html=1;aspect=fixed;fontSize=18;fillColor=#E6E6E6;" parent="1" vertex="1">
                    <mxGeometry x="300" y="395" width="50" height="50" as="geometry"/>
                </mxCell>
                <mxCell id="27" value="2" style="ellipse;whiteSpace=wrap;html=1;aspect=fixed;fontSize=18;fillColor=#E6E6E6;" parent="1" vertex="1">
                    <mxGeometry x="300" y="475" width="50" height="50" as="geometry"/>
                </mxCell>
                <mxCell id="86" style="edgeStyle=none;html=1;entryX=0.875;entryY=1;entryDx=0;entryDy=0;entryPerimeter=0;endArrow=none;endFill=0;" edge="1" parent="1" source="28" target="29">
                    <mxGeometry relative="1" as="geometry"/>
                </mxCell>
                <mxCell id="28" value="6" style="ellipse;whiteSpace=wrap;html=1;aspect=fixed;fontSize=18;fillColor=#E6E6E6;" parent="1" vertex="1">
                    <mxGeometry x="790" y="580" width="50" height="50" as="geometry"/>
                </mxCell>
                <mxCell id="35" style="edgeStyle=orthogonalEdgeStyle;rounded=0;html=1;entryX=0;entryY=0.5;entryDx=0;entryDy=0;strokeColor=#b85450;strokeWidth=3;fontSize=18;endArrow=classic;endFill=1;fillColor=#f8cecc;" parent="1" source="29" target="34" edge="1">
                    <mxGeometry relative="1" as="geometry"/>
                </mxCell>
                <mxCell id="29" value="こもあユニット" style="rounded=0;whiteSpace=wrap;html=1;fontSize=18;" parent="1" vertex="1">
                    <mxGeometry x="640" y="520" width="200" height="40" as="geometry"/>
                </mxCell>
                <mxCell id="32" style="edgeStyle=orthogonalEdgeStyle;rounded=0;html=1;entryX=0.25;entryY=1;entryDx=0;entryDy=0;strokeColor=#b85450;strokeWidth=3;fontSize=18;endArrow=classic;endFill=1;fillColor=#f8cecc;" parent="1" source="31" target="29" edge="1">
                    <mxGeometry relative="1" as="geometry"/>
                </mxCell>
                <mxCell id="31" value="&lt;font style=&quot;font-size: 18px;&quot;&gt;発電機&lt;/font&gt;" style="rounded=0;whiteSpace=wrap;html=1;fontSize=20;" parent="1" vertex="1">
                    <mxGeometry x="630" y="600" width="120" height="40" as="geometry"/>
                </mxCell>
                <mxCell id="85" value="" style="edgeStyle=none;html=1;" edge="1" parent="1" source="33" target="31">
                    <mxGeometry relative="1" as="geometry"/>
                </mxCell>
                <mxCell id="33" value="AC 100 V" style="text;html=1;align=center;verticalAlign=middle;resizable=0;points=[];autosize=1;strokeColor=none;fillColor=none;fontSize=18;" parent="1" vertex="1">
                    <mxGeometry x="580" y="560" width="100" height="40" as="geometry"/>
                </mxCell>
                <mxCell id="37" style="edgeStyle=orthogonalEdgeStyle;rounded=0;html=1;strokeWidth=3;fontSize=18;endArrow=classic;endFill=1;exitX=1;exitY=0.5;exitDx=0;exitDy=0;" parent="1" source="34" edge="1">
                    <mxGeometry relative="1" as="geometry">
                        <mxPoint x="1120" y="400" as="targetPoint"/>
                    </mxGeometry>
                </mxCell>
                <mxCell id="34" value="ネオントランス" style="rounded=0;whiteSpace=wrap;html=1;fontSize=18;" parent="1" vertex="1">
                    <mxGeometry x="880" y="520" width="200" height="40" as="geometry"/>
                </mxCell>
                <mxCell id="36" value="モータ" style="rounded=0;whiteSpace=wrap;html=1;fontSize=18;" parent="1" vertex="1">
                    <mxGeometry x="1080" y="320" width="80" height="80" as="geometry"/>
                </mxCell>
                <mxCell id="39" value="イグニッションワイヤ" style="text;html=1;align=center;verticalAlign=middle;resizable=0;points=[];autosize=1;strokeColor=none;fillColor=none;fontSize=18;" parent="1" vertex="1">
                    <mxGeometry x="1120" y="500" width="200" height="40" as="geometry"/>
                </mxCell>
                <mxCell id="40" value="8" style="ellipse;whiteSpace=wrap;html=1;aspect=fixed;fontSize=18;fillColor=#E6E6E6;" parent="1" vertex="1">
                    <mxGeometry x="1030" y="460" width="50" height="50" as="geometry"/>
                </mxCell>
                <mxCell id="41" value="9" style="ellipse;whiteSpace=wrap;html=1;aspect=fixed;fontSize=18;fillColor=#E6E6E6;" parent="1" vertex="1">
                    <mxGeometry x="1270" y="450" width="50" height="50" as="geometry"/>
                </mxCell>
                <mxCell id="42" value="主流&lt;br&gt;バルブ" style="rounded=0;whiteSpace=wrap;html=1;fontSize=18;" parent="1" vertex="1">
                    <mxGeometry x="1130" y="230" width="80" height="80" as="geometry"/>
                </mxCell>
                <mxCell id="43" value="供給&lt;br&gt;バルブ" style="rounded=0;whiteSpace=wrap;html=1;fontSize=18;" parent="1" vertex="1">
                    <mxGeometry x="1030" y="230" width="80" height="80" as="geometry"/>
                </mxCell>
                <mxCell id="45" style="edgeStyle=orthogonalEdgeStyle;rounded=0;html=1;entryX=0.5;entryY=0;entryDx=0;entryDy=0;strokeColor=#000000;strokeWidth=3;fontSize=18;endArrow=classic;endFill=1;exitX=0.75;exitY=1;exitDx=0;exitDy=0;" parent="1" source="44" target="42" edge="1">
                    <mxGeometry relative="1" as="geometry"/>
                </mxCell>
                <mxCell id="46" style="edgeStyle=orthogonalEdgeStyle;rounded=0;html=1;entryX=0.5;entryY=0;entryDx=0;entryDy=0;strokeColor=#000000;strokeWidth=3;fontSize=18;endArrow=classic;endFill=1;exitX=0.25;exitY=1;exitDx=0;exitDy=0;" parent="1" source="44" target="43" edge="1">
                    <mxGeometry relative="1" as="geometry"/>
                </mxCell>
                <mxCell id="44" value="搭載計器" style="rounded=0;whiteSpace=wrap;html=1;fontSize=18;" parent="1" vertex="1">
                    <mxGeometry x="1080" y="110" width="80" height="80" as="geometry"/>
                </mxCell>
                <mxCell id="52" style="edgeStyle=orthogonalEdgeStyle;rounded=0;html=1;entryX=0;entryY=0.5;entryDx=0;entryDy=0;strokeColor=#b85450;strokeWidth=3;fontSize=18;endArrow=classic;endFill=1;exitX=0.5;exitY=0;exitDx=0;exitDy=0;fillColor=#f8cecc;" parent="1" source="49" target="44" edge="1">
                    <mxGeometry relative="1" as="geometry"/>
                </mxCell>
                <mxCell id="49" value="&lt;font style=&quot;font-size: 18px;&quot;&gt;安定化電源&lt;/font&gt;" style="rounded=0;whiteSpace=wrap;html=1;fontSize=20;" parent="1" vertex="1">
                    <mxGeometry x="860" y="200" width="140" height="40" as="geometry"/>
                </mxCell>
                <mxCell id="51" value="&lt;font style=&quot;font-size: 18px;&quot;&gt;DC 20 V&lt;/font&gt;" style="text;html=1;align=center;verticalAlign=middle;resizable=0;points=[];autosize=1;strokeColor=none;fillColor=none;fontSize=20;" parent="1" vertex="1">
                    <mxGeometry x="840" y="280" width="90" height="40" as="geometry"/>
                </mxCell>
                <mxCell id="53" value="&lt;font style=&quot;font-size: 18px;&quot;&gt;DC 12 V&lt;/font&gt;" style="text;html=1;align=center;verticalAlign=middle;resizable=0;points=[];autosize=1;strokeColor=none;fillColor=none;fontSize=20;" parent="1" vertex="1">
                    <mxGeometry x="930" y="110" width="90" height="40" as="geometry"/>
                </mxCell>
                <mxCell id="56" value="10" style="ellipse;whiteSpace=wrap;html=1;aspect=fixed;fontSize=18;fillColor=#E6E6E6;" parent="1" vertex="1">
                    <mxGeometry x="860" y="140" width="50" height="50" as="geometry"/>
                </mxCell>
                <mxCell id="59" value="" style="rounded=0;whiteSpace=wrap;html=1;fontSize=18;fillColor=none;strokeWidth=3;movable=0;resizable=0;rotatable=0;deletable=0;editable=0;connectable=0;" parent="1" vertex="1">
                    <mxGeometry x="70" y="-80" width="250" height="120" as="geometry"/>
                </mxCell>
                <mxCell id="60" value="&lt;font style=&quot;font-size: 20px;&quot;&gt;通信系&lt;/font&gt;" style="text;html=1;strokeColor=none;fillColor=none;align=center;verticalAlign=middle;whiteSpace=wrap;rounded=0;dashed=1;strokeWidth=3;fontSize=18;" parent="1" vertex="1">
                    <mxGeometry x="90" y="-60" width="70" height="30" as="geometry"/>
                </mxCell>
                <mxCell id="61" value="&lt;font style=&quot;font-size: 20px;&quot;&gt;電源系&lt;/font&gt;" style="text;html=1;strokeColor=none;fillColor=none;align=center;verticalAlign=middle;whiteSpace=wrap;rounded=0;dashed=1;strokeWidth=3;fontSize=18;" parent="1" vertex="1">
                    <mxGeometry x="90" y="-10" width="70" height="30" as="geometry"/>
                </mxCell>
                <mxCell id="63" value="" style="endArrow=classic;html=1;rounded=0;strokeColor=#6c8ebf;strokeWidth=3;fontSize=18;fillColor=#dae8fc;" parent="1" edge="1">
                    <mxGeometry width="50" height="50" relative="1" as="geometry">
                        <mxPoint x="180" y="-40" as="sourcePoint"/>
                        <mxPoint x="280" y="-40" as="targetPoint"/>
                    </mxGeometry>
                </mxCell>
                <mxCell id="64" value="" style="endArrow=classic;html=1;rounded=0;strokeColor=#b85450;strokeWidth=3;fontSize=18;fillColor=#f8cecc;" parent="1" edge="1">
                    <mxGeometry width="50" height="50" relative="1" as="geometry">
                        <mxPoint x="180" y="10" as="sourcePoint"/>
                        <mxPoint x="280" y="10" as="targetPoint"/>
                    </mxGeometry>
                </mxCell>
                <mxCell id="68" value="" style="endArrow=none;html=1;rounded=0;strokeColor=#000000;strokeWidth=3;fontSize=20;entryX=0.5;entryY=1;entryDx=0;entryDy=0;exitX=0.5;exitY=0;exitDx=0;exitDy=0;" parent="1" source="5" target="25" edge="1">
                    <mxGeometry width="50" height="50" relative="1" as="geometry">
                        <mxPoint x="740" y="250" as="sourcePoint"/>
                        <mxPoint x="790" y="200" as="targetPoint"/>
                    </mxGeometry>
                </mxCell>
                <mxCell id="69" value="" style="endArrow=none;html=1;rounded=0;strokeColor=#000000;strokeWidth=3;fontSize=20;entryX=1;entryY=0.5;entryDx=0;entryDy=0;exitX=0;exitY=0.5;exitDx=0;exitDy=0;" parent="1" source="7" target="24" edge="1">
                    <mxGeometry width="50" height="50" relative="1" as="geometry">
                        <mxPoint x="380" y="230" as="sourcePoint"/>
                        <mxPoint x="430" y="180" as="targetPoint"/>
                    </mxGeometry>
                </mxCell>
                <mxCell id="70" value="" style="endArrow=none;html=1;rounded=0;strokeColor=#000000;strokeWidth=3;fontSize=20;entryX=0.5;entryY=1;entryDx=0;entryDy=0;exitX=0.5;exitY=0;exitDx=0;exitDy=0;" parent="1" source="3" target="23" edge="1">
                    <mxGeometry width="50" height="50" relative="1" as="geometry">
                        <mxPoint x="280" y="250" as="sourcePoint"/>
                        <mxPoint x="330" y="200" as="targetPoint"/>
                    </mxGeometry>
                </mxCell>
                <mxCell id="71" value="3" style="ellipse;whiteSpace=wrap;html=1;aspect=fixed;fontSize=18;fillColor=#E6E6E6;" parent="1" vertex="1">
                    <mxGeometry x="360" y="140" width="50" height="50" as="geometry"/>
                </mxCell>
                <mxCell id="74" value="" style="endArrow=none;html=1;rounded=0;strokeColor=#000000;strokeWidth=3;fontSize=20;entryX=0.5;entryY=1;entryDx=0;entryDy=0;exitX=0.104;exitY=-0.004;exitDx=0;exitDy=0;exitPerimeter=0;" parent="1" source="2" target="71" edge="1">
                    <mxGeometry width="50" height="50" relative="1" as="geometry">
                        <mxPoint x="380" y="240" as="sourcePoint"/>
                        <mxPoint x="430" y="190" as="targetPoint"/>
                    </mxGeometry>
                </mxCell>
                <mxCell id="75" value="" style="endArrow=none;html=1;rounded=0;strokeColor=#000000;strokeWidth=3;fontSize=20;exitX=1;exitY=0.5;exitDx=0;exitDy=0;entryX=0;entryY=0.5;entryDx=0;entryDy=0;" parent="1" source="26" target="10" edge="1">
                    <mxGeometry width="50" height="50" relative="1" as="geometry">
                        <mxPoint x="380" y="420" as="sourcePoint"/>
                        <mxPoint x="430" y="370" as="targetPoint"/>
                    </mxGeometry>
                </mxCell>
                <mxCell id="76" value="" style="endArrow=none;html=1;rounded=0;strokeColor=#000000;strokeWidth=3;fontSize=20;exitX=1;exitY=0.5;exitDx=0;exitDy=0;entryX=0;entryY=0.5;entryDx=0;entryDy=0;" parent="1" source="27" target="13" edge="1">
                    <mxGeometry width="50" height="50" relative="1" as="geometry">
                        <mxPoint x="380" y="500" as="sourcePoint"/>
                        <mxPoint x="430" y="450" as="targetPoint"/>
                    </mxGeometry>
                </mxCell>
                <mxCell id="88" style="edgeStyle=elbowEdgeStyle;html=1;entryX=1;entryY=0.5;entryDx=0;entryDy=0;fontSize=16;endArrow=none;endFill=0;rounded=0;strokeWidth=2;" edge="1" parent="1" source="78" target="19">
                    <mxGeometry relative="1" as="geometry"/>
                </mxCell>
                <mxCell id="78" value="7" style="ellipse;whiteSpace=wrap;html=1;aspect=fixed;fontSize=18;fillColor=#E6E6E6;" parent="1" vertex="1">
                    <mxGeometry x="890" y="370" width="50" height="50" as="geometry"/>
                </mxCell>
                <mxCell id="79" value="" style="endArrow=none;html=1;rounded=0;strokeColor=#000000;strokeWidth=3;fontSize=20;exitX=0.5;exitY=1;exitDx=0;exitDy=0;entryX=0.875;entryY=-0.004;entryDx=0;entryDy=0;entryPerimeter=0;" parent="1" source="40" target="34" edge="1">
                    <mxGeometry width="50" height="50" relative="1" as="geometry">
                        <mxPoint x="960" y="520" as="sourcePoint"/>
                        <mxPoint x="1010" y="470" as="targetPoint"/>
                    </mxGeometry>
                </mxCell>
                <mxCell id="81" value="" style="endArrow=none;html=1;rounded=0;strokeColor=#000000;strokeWidth=3;fontSize=20;entryX=0.5;entryY=1;entryDx=0;entryDy=0;exitX=0.179;exitY=0.004;exitDx=0;exitDy=0;exitPerimeter=0;" parent="1" source="49" target="56" edge="1">
                    <mxGeometry width="50" height="50" relative="1" as="geometry">
                        <mxPoint x="880" y="240" as="sourcePoint"/>
                        <mxPoint x="930" y="190" as="targetPoint"/>
                    </mxGeometry>
                </mxCell>
                <mxCell id="82" value="&lt;font style=&quot;font-size: 16px;&quot;&gt;アンビリカルケーブル&lt;br&gt;7 m&lt;br&gt;&lt;/font&gt;" style="text;html=1;align=center;verticalAlign=middle;resizable=0;points=[];autosize=1;strokeColor=none;fillColor=none;fontSize=20;" parent="1" vertex="1">
                    <mxGeometry x="630" y="310" width="180" height="60" as="geometry"/>
                </mxCell>
                <mxCell id="83" value="11" style="ellipse;whiteSpace=wrap;html=1;aspect=fixed;fontSize=18;fillColor=#E6E6E6;" parent="1" vertex="1">
                    <mxGeometry x="585" y="290" width="50" height="50" as="geometry"/>
                </mxCell>
                <mxCell id="84" value="空圧弁ユニット" style="rounded=0;whiteSpace=wrap;html=1;fontSize=18;" vertex="1" parent="1">
                    <mxGeometry x="680" y="430" width="200" height="40" as="geometry"/>
                </mxCell>
                <mxCell id="89" style="edgeStyle=elbowEdgeStyle;html=1;entryX=1;entryY=0.5;entryDx=0;entryDy=0;fontSize=16;endArrow=none;endFill=0;rounded=0;strokeWidth=2;" edge="1" parent="1" source="87" target="84">
                    <mxGeometry relative="1" as="geometry"/>
                </mxCell>
                <mxCell id="87" value="7" style="ellipse;whiteSpace=wrap;html=1;aspect=fixed;fontSize=18;fillColor=#E6E6E6;" vertex="1" parent="1">
                    <mxGeometry x="890" y="440" width="50" height="50" as="geometry"/>
                </mxCell>
                <mxCell id="90" value="通信ケーブル&lt;br&gt;100 m" style="text;html=1;align=center;verticalAlign=middle;resizable=0;points=[];autosize=1;strokeColor=none;fillColor=none;fontSize=16;" vertex="1" parent="1">
                    <mxGeometry x="360" y="300" width="120" height="50" as="geometry"/>
                </mxCell>
                <mxCell id="91" value="&lt;font style=&quot;font-size: 20px;&quot;&gt;&lt;b&gt;点火所&lt;/b&gt;&lt;/font&gt;" style="text;html=1;align=center;verticalAlign=middle;resizable=0;points=[];autosize=1;strokeColor=none;fillColor=none;fontSize=16;" vertex="1" parent="1">
                    <mxGeometry x="90" y="75" width="80" height="40" as="geometry"/>
                </mxCell>
                <mxCell id="92" value="&lt;b&gt;機体&lt;/b&gt;" style="text;html=1;align=center;verticalAlign=middle;resizable=0;points=[];autosize=1;strokeColor=none;fillColor=none;fontSize=20;" vertex="1" parent="1">
                    <mxGeometry x="1030" y="50" width="60" height="40" as="geometry"/>
                </mxCell>
            </root>
        </mxGraphModel>
    </diagram>
</mxfile>